<mxfile host="app.diagrams.net" modified="2024-02-19T07:18:31.407Z" agent="Mozilla/5.0 (Macintosh; Intel Mac OS X 10_15_7) AppleWebKit/537.36 (KHTML, like Gecko) Chrome/121.0.0.0 Safari/537.36" version="22.1.21" etag="sO1no5UR8F3g5qc_-oWp" type="github">
  <diagram name="第 1 页" id="8CkQSImnR_3H1WW3mYVL">
    <mxGraphModel>
      <root>
        <mxCell id="0" />
        <mxCell id="1" parent="0" />
      </root>
    </mxGraphModel>
  </diagram>
</mxfile>
